<svg width="39" height="39" viewBox="0 0 39 39" fill="none" xmlns="http://www.w3.org/2000/svg">
<rect width="39" height="39" rx="10" fill="#7000FF"/>
<path d="M19.5 14.6094C22.4531 14.6094 24.8906 17.0469 24.8906 20C24.8906 23 22.4531 25.3906 19.5 25.3906C16.5 25.3906 14.1094 23 14.1094 20C14.1094 17.0469 16.5 14.6094 19.5 14.6094ZM19.5 23.5156C21.4219 23.5156 22.9688 21.9688 22.9688 20C22.9688 18.0781 21.4219 16.5312 19.5 16.5312C17.5312 16.5312 15.9844 18.0781 15.9844 20C15.9844 21.9688 17.5781 23.5156 19.5 23.5156ZM26.3438 14.4219C26.3438 15.125 25.7812 15.6875 25.0781 15.6875C24.375 15.6875 23.8125 15.125 23.8125 14.4219C23.8125 13.7188 24.375 13.1562 25.0781 13.1562C25.7812 13.1562 26.3438 13.7188 26.3438 14.4219ZM29.9062 15.6875C30 17.4219 30 22.625 29.9062 24.3594C29.8125 26.0469 29.4375 27.5 28.2188 28.7656C27 29.9844 25.5 30.3594 23.8125 30.4531C22.0781 30.5469 16.875 30.5469 15.1406 30.4531C13.4531 30.3594 12 29.9844 10.7344 28.7656C9.51562 27.5 9.14062 26.0469 9.04688 24.3594C8.95312 22.625 8.95312 17.4219 9.04688 15.6875C9.14062 14 9.51562 12.5 10.7344 11.2812C12 10.0625 13.4531 9.6875 15.1406 9.59375C16.875 9.5 22.0781 9.5 23.8125 9.59375C25.5 9.6875 27 10.0625 28.2188 11.2812C29.4375 12.5 29.8125 14 29.9062 15.6875ZM27.6562 26.1875C28.2188 24.8281 28.0781 21.5469 28.0781 20C28.0781 18.5 28.2188 15.2188 27.6562 13.8125C27.2812 12.9219 26.5781 12.1719 25.6875 11.8438C24.2812 11.2812 21 11.4219 19.5 11.4219C17.9531 11.4219 14.6719 11.2812 13.3125 11.8438C12.375 12.2188 11.6719 12.9219 11.2969 13.8125C10.7344 15.2188 10.875 18.5 10.875 20C10.875 21.5469 10.7344 24.8281 11.2969 26.1875C11.6719 27.125 12.375 27.8281 13.3125 28.2031C14.6719 28.7656 17.9531 28.625 19.5 28.625C21 28.625 24.2812 28.7656 25.6875 28.2031C26.5781 27.8281 27.3281 27.125 27.6562 26.1875Z" fill="white"/>
</svg>
