<svg width="39" height="39" viewBox="0 0 39 39" fill="none" xmlns="http://www.w3.org/2000/svg">
<rect width="39" height="39" rx="10" fill="#FF0000"/>
<g clip-path="url(#clip0_4_51)">
<path d="M23 20L17 16V24L23 20Z" stroke="#F6F5F5" stroke-width="2" stroke-linecap="round" stroke-linejoin="round"/>
<path d="M6 20C6 23.7387 6.38375 25.9312 6.67625 27.0587C6.7536 27.3654 6.90258 27.6494 7.11096 27.8873C7.31935 28.1253 7.58119 28.3104 7.875 28.4275C12.065 30.0437 19 30 19 30C19 30 25.935 30.0437 30.125 28.4275C30.4197 28.311 30.6826 28.1262 30.8919 27.8882C31.1012 27.6503 31.2509 27.3659 31.3288 27.0587C31.6213 25.9337 32.005 23.7387 32.005 20C32.005 16.2612 31.6213 14.0687 31.3288 12.9412C31.2518 12.6329 31.1024 12.3473 30.8931 12.1082C30.6838 11.8691 30.4205 11.6833 30.125 11.5662C25.935 9.95624 19 9.99999 19 9.99999C19 9.99999 12.065 9.95624 7.875 11.5725C7.57954 11.6896 7.31623 11.8753 7.1069 12.1145C6.89756 12.3536 6.74822 12.6392 6.67125 12.9475C6.38375 14.0675 6 16.2612 6 20Z" stroke="#F6F5F5" stroke-width="2" stroke-linecap="round" stroke-linejoin="round"/>
</g>
<defs>
<clipPath id="clip0_4_51">
<rect width="32" height="32" fill="white" transform="translate(3 4)"/>
</clipPath>
</defs>
</svg>
